<?xml version="1.0" encoding="utf-8"?>
<!-- Generator: Adobe Illustrator 25.2.0, SVG Export Plug-In . SVG Version: 6.00 Build 0)  -->
<svg version="1.1" id="Calque_1" xmlns="http://www.w3.org/2000/svg" xmlns:xlink="http://www.w3.org/1999/xlink" x="0px" y="0px"
	 width="60px" height="60px" viewBox="0 0 60 60" style="enable-background:new 0 0 60 60;" xml:space="preserve">
<style type="text/css">
	.st0{fill:url(#SVGID_1_);}
	.st1{fill:#666B6D;}
	.st2{fill:#798084;}
	.st3{fill:#FFFFFF;}
	.st4{fill:#2F8B57;}
	.st5{fill:#39BC6E;enable-background:new    ;}
</style>
<linearGradient id="SVGID_1_" gradientUnits="userSpaceOnUse" x1="6.378" y1="19.792" x2="50.6684" y2="19.792">
	<stop  offset="0" style="stop-color:#B5C4D2"/>
	<stop  offset="1" style="stop-color:#8B96A1"/>
</linearGradient>
<path class="st0" d="M33.7,31.6c3.6-0.5,11-3.8,14.1-5.9c0.9,0.5,1.9,1.1,2.8,1.6V0.5c0,0-34.1,0-39.1,0c-4.9,0-5.2,5.2-5.2,5.2
	v33.4h27.2C33.7,36.8,33.8,34.4,33.7,31.6z"/>
<path class="st1" d="M56.8,4.9c0,0,0-4.4-6.2-4.4v4.4H56.8z"/>
<path class="st2" d="M33.6,39.1H6.4L0,38.8c0,0-0.6,6.7,5.1,6.7c3.5,0,17.9,0,28.5,0C33.5,43.6,33.6,41.5,33.6,39.1z"/>
<rect x="11.6" y="14.2" class="st3" width="32.4" height="2"/>
<rect x="11.5" y="20.6" class="st3" width="32.4" height="2"/>
<rect x="11.6" y="7.5" class="st3" width="19.8" height="2"/>
<rect x="11.6" y="29.3" class="st3" width="10.7" height="2"/>
<path class="st4" d="M47.8,28.3c3.7,2.2,7.8,4.4,12,5c-0.3,13.6,3.1,18.6-12.1,26.2c-15-7.4-11.9-12.6-12.1-26.2
	C38.8,32.9,45.2,30,47.8,28.3"/>
<path class="st5" d="M47.8,28.3c-2.8,1.8-9,4.6-12.1,5c0.2,13.6-2.9,18.8,12.1,26.2l0,0V28.3z"/>
</svg>
