<?xml version="1.0" encoding="utf-8"?>
<!-- Generator: Adobe Illustrator 25.2.0, SVG Export Plug-In . SVG Version: 6.00 Build 0)  -->
<svg version="1.1" id="Calque_1" xmlns="http://www.w3.org/2000/svg" xmlns:xlink="http://www.w3.org/1999/xlink" x="0px" y="0px"
	 viewBox="0 0 60 60" style="enable-background:new 0 0 60 60;" xml:space="preserve">
<style type="text/css">
	.st0{fill:#2D3F7F;}
	.st1{fill:#4684E8;}
	.st2{fill:#519BE5;}
	.st3{fill:#65B1EF;}
	.st4{fill:#FFFFFF;}
	.st5{fill:url(#SVGID_1_);}
</style>
<path class="st0" d="M38.5,0l-0.7,10.2L21.4,3.7l-1.6,7.1L8.6,6.2l-1,22.5l1,20.5l11.5-5.1l1.3,7.5l14.3-6.9L34.5,39l4,2.9h1.1v-2.2
	c0-3.4,2.5-8.4,9.5-8.4c1.9,0,3.5,0.4,4.9,1.1V5L38.5,0z"/>
<polygon class="st1" points="36.2,41.9 38.5,41.9 38.5,0 24.3,3.7 24.3,51.6 36.2,54.1 "/>
<polygon class="st2" points="11.5,6.2 11.5,49.2 21.4,51.6 21.4,3.7 "/>
<polygon class="st3" points="0,8.4 8.6,6.2 8.6,49.2 0,47.4 "/>
<polygon class="st4" points="35.7,11.7 27,13.3 27,15 35.7,13.4 "/>
<polygon class="st4" points="13.8,17.1 13.8,15.4 18.9,14.4 18.9,16.1 "/>
<polygon class="st4" points="2.6,18.3 2.6,16.7 5.8,16.1 5.8,17.7 "/>
<polygon class="st4" points="35.7,23.4 27,23.9 27,25.6 35.7,25.3 "/>
<polygon class="st4" points="13.8,26.2 13.8,24.5 18.9,24.3 18.9,26 "/>
<polygon class="st4" points="2.6,26.2 2.6,24.6 5.8,24.6 5.8,26.2 "/>
<polygon class="st4" points="27,34.7 27,36.4 35.6,37.3 35.7,35.4 "/>
<polygon class="st4" points="13.8,35.4 13.8,33.6 18.9,34.4 18.9,36.1 "/>
<polygon class="st4" points="2.6,34.8 2.6,33.2 5.7,33.5 5.8,35.1 "/>
<linearGradient id="SVGID_1_" gradientUnits="userSpaceOnUse" x1="37.8913" y1="3354.5" x2="60.0913" y2="3354.5" gradientTransform="matrix(1 0 0 1 0 -3308.0002)">
	<stop  offset="0" style="stop-color:#6A676A"/>
	<stop  offset="1" style="stop-color:#332F33"/>
</linearGradient>
<path class="st5" d="M56.7,43.6v-3.5c0-0.1,0-3-2-5.1c-1.3-1.3-3.3-2-5.6-2c-6.2,0-7.9,4.4-7.9,6.7v3.8h-3.4V60H60V43.6H56.7z
	 M43.5,39.8c0-0.4,0.2-4.6,5.6-4.6c1.8,0,3.1,0.4,4,1.3c1.5,1.5,1.5,3.5,1.5,3.6v3.5H43.5V39.8z M50,52.2v3.6h-2.2v-3.6
	c-0.8-0.4-1.3-1.2-1.3-2.1c0-1.3,1.1-2.4,2.5-2.4c1.3,0,2.5,1.1,2.5,2.4C51.3,51,50.8,51.9,50,52.2z"/>
</svg>
