<?xml version="1.0" encoding="utf-8"?>
<!-- Generator: Adobe Illustrator 25.2.0, SVG Export Plug-In . SVG Version: 6.00 Build 0)  -->
<svg version="1.1" id="Calque_1" xmlns="http://www.w3.org/2000/svg" xmlns:xlink="http://www.w3.org/1999/xlink" x="0px" y="0px"
	 viewBox="0 0 60 60" style="enable-background:new 0 0 60 60;" xml:space="preserve">
<style type="text/css">
	.st0{fill:url(#SVGID_1_);}
	.st1{fill:url(#SVGID_2_);}
	.st2{fill:url(#SVGID_3_);}
	.st3{fill:#1D407B;}
</style>
<linearGradient id="SVGID_1_" gradientUnits="userSpaceOnUse" x1="9.094947e-13" y1="22.1931" x2="60" y2="22.1931">
	<stop  offset="0" style="stop-color:#56A9EB"/>
	<stop  offset="1" style="stop-color:#4C6BC8"/>
</linearGradient>
<path class="st0" d="M0,1v42.4h13.8c2-20,30.3-20,32.4,0H60V1H0z"/>
<linearGradient id="SVGID_2_" gradientUnits="userSpaceOnUse" x1="9.094947e-13" y1="28.2407" x2="60" y2="28.2407">
	<stop  offset="0" style="stop-color:#4982C9"/>
	<stop  offset="1" style="stop-color:#345097"/>
</linearGradient>
<path class="st1" d="M29.9,28.3c8.6,0,15.5,6.7,16.2,15.1H60L30,13.1L0,43.4h13.8C14.4,34.9,21.4,28.3,29.9,28.3z"/>
<linearGradient id="SVGID_3_" gradientUnits="userSpaceOnUse" x1="9.094947e-13" y1="12.9169" x2="60" y2="12.9169">
	<stop  offset="0" style="stop-color:#7FCAFF"/>
	<stop  offset="1" style="stop-color:#509DE2"/>
</linearGradient>
<polygon class="st2" points="0,3.4 30,24.8 60,3.2 60,1 0,1 "/>
<path class="st3" d="M34.9,49.1c-1,0.6-1.8,1.3-2.8,1.7c-4.8,2.1-10.2-3.2-8.4-8c2.1-6.8,12.2-5.4,12.5,1.7c0,0.8,0.1,1.7,0.3,2.5
	c0.4,1.6,2.2,2.3,3.7,1.5c0.7-0.4,1-1,1.1-1.8c0.6-4.4-0.7-8.1-4.1-10.9C31,30.6,21.7,33.2,19,41c-4,11.3,9.9,20.4,18.6,12.6
	c0.6-0.7,1.8-1,2.3,0c0.7,1.6-1.6,2.4-2.6,3.3C35.1,58.3,32.7,59,30,59c-13,0.2-19.1-16.5-9.2-24.9c6.9-6.3,18.7-3.3,22,5.1
	c1.8,4,2.4,11.9-3.6,12.1C37.4,51.3,35.9,50.6,34.9,49.1z M30,48.8c5.1-0.2,5.1-7.7,0-7.8C24.8,41.1,24.9,48.6,30,48.8z"/>
</svg>
