<?xml version="1.0" encoding="utf-8"?>
<!-- Generator: Adobe Illustrator 25.2.0, SVG Export Plug-In . SVG Version: 6.00 Build 0)  -->
<svg version="1.1" id="Calque_1" xmlns="http://www.w3.org/2000/svg" xmlns:xlink="http://www.w3.org/1999/xlink" x="0px" y="0px"
	 width="60px" height="60px" viewBox="0 0 60 60" style="enable-background:new 0 0 60 60;" xml:space="preserve">
<style type="text/css">
	.st0{fill:url(#SVGID_1_);}
	.st1{fill:url(#SVGID_2_);}
	.st2{fill:#8AA5AA;}
	.st3{fill:#D1E7ED;}
	.st4{fill:url(#SVGID_3_);}
	.st5{fill:url(#SVGID_4_);}
	.st6{fill:url(#SVGID_5_);}
	.st7{fill:url(#SVGID_6_);}
</style>
<linearGradient id="SVGID_1_" gradientUnits="userSpaceOnUse" x1="4.3" y1="32" x2="56.1" y2="32" gradientTransform="matrix(1 0 0 -1 0 62)">
	<stop  offset="0" style="stop-color:#3FC776"/>
	<stop  offset="1" style="stop-color:#1B6848"/>
</linearGradient>
<ellipse class="st0" cx="30.2" cy="30" rx="25.9" ry="26"/>
<linearGradient id="SVGID_2_" gradientUnits="userSpaceOnUse" x1="4.3" y1="32" x2="56.1" y2="32" gradientTransform="matrix(1 0 0 -1 0 62)">
	<stop  offset="0" style="stop-color:#7FE5B3"/>
	<stop  offset="1" style="stop-color:#3B8F62"/>
</linearGradient>
<path class="st1" d="M32.5,45.2c3.1,0.2,6.1,0.6,9.1,1.4c-1.2,2.7-2.7,5.1-4.9,7.1c-1,0.9-2.1,1.7-3.4,2.2c3.8-0.5,7.4-1.7,10.5-3.7
	c0.7-1.3,1.5-2.7,2.2-4c0.6,0.3,1.2,0.6,1.9,0.9c1.1-1.1,2.2-2.2,3.1-3.5c-1.2-0.6,2.7-13,5-13c0.1-0.8,0.1-1.7,0.1-2.5
	c0-0.7,0-1.4-0.1-2.1c-2.2,0-4.5,0-6.6,0c-0.2-1.9-0.4-3.8-0.7-5.7s-0.8-3.7-1.2-5.6c1.2-0.6,2.4-1.2,3.7-1.8
	c-0.9-1.3-1.9-2.4-3-3.5c-0.8,0.4-1.5,0.7-2.2,1c-0.9-1.6-1.7-3.1-2.5-4.6c0.8,0.5,1.6,1,2.4,1.6C41.6,6,36.1,4,30.2,4
	c-5.4,0-10.4,1.6-14.5,4.5c0.4-0.3,0.8-0.5,1.2-0.8c-0.9,1.6-1.7,3.1-2.6,4.8c-0.7-0.3-1.4-0.7-2.2-1c-1.1,1.1-2.1,2.3-3,3.5
	c1.3,0.6,2.5,1.2,3.8,1.8c-1.1,3.6-1.6,7.3-1.8,11.2c-2.2,0-4.4,0-6.7,0c-0.1,0.7-0.1,1.4-0.1,2.1c0,0.8,0,1.7,0.1,2.5h0.1
	c2.1,0,5.9,12.3,4.7,12.8c0.9,1.3,2,2.4,3.1,3.5c0.7-0.3,1.3-0.6,1.9-0.9c0.8,1.4,1.5,2.8,2.3,4.1c3.1,2,6.7,3.2,10.5,3.7
	c-2-0.8-3.7-2.2-5.1-3.9c-1.3-1.6-2.4-3.4-3.2-5.2c0-0.1,6-1.4,9.1-1.5c0,3.6,0,7.1,0,10.7c0.8,0.1,1.5,0.1,2.3,0.1s1.5,0,2.3-0.1
	C32.5,52.3,32.5,48.8,32.5,45.2z M23.7,6.7c1.3-1.2,3.2-2.2,4.2-2.4c0,3.6,0,7.2,0,10.8c-3.1-0.1-6.1-0.6-9.2-1.4
	C20,11.2,21.5,8.7,23.7,6.7z M17.2,18.2c1.2,0.3,2.3,0.5,3.4,0.7c2.3,0.5,4.7,0.7,7,0.8c0.2,0,0.4,0,0.4,0.3c0,2.5,0,5.1,0,7.6
	c0,0.1,0,0.1,0,0.2c-4.1,0-8.2,0-12.3,0C15.8,24.6,16.2,21.4,17.2,18.2z M32.5,4.3c0.5,0.2,1,0.4,1.5,0.6c1.8,0.9,3.2,2.1,4.4,3.6
	c1.3,1.6,2.3,3.3,3.2,5.2c-3,0.8-6,1.3-9.1,1.4C32.5,11.6,32.5,8,32.5,4.3z M32.5,20.2c0-0.1,0-0.3,0-0.5c3.6-0.2,7.2-0.7,10.7-1.7
	c0.9,3.2,1.5,6.5,1.6,9.9c-0.2,0-0.3,0-0.4,0c-3.8,0-7.6,0-11.5,0c-0.4,0-0.5-0.1-0.5-0.5C32.5,25.1,32.5,22.6,32.5,20.2z"/>
<polygon class="st2" points="60,49.8 2,49.8 0,47.4 2,30.1 58,28.1 60,30.1 "/>
<rect y="28.1" class="st3" width="58" height="19.3"/>
<g>
	
		<linearGradient id="SVGID_3_" gradientUnits="userSpaceOnUse" x1="3" y1="23.95" x2="53.5649" y2="23.95" gradientTransform="matrix(1 0 0 -1 0 62)">
		<stop  offset="0" style="stop-color:#484649"/>
		<stop  offset="1" style="stop-color:#322D31"/>
	</linearGradient>
	<path class="st4" d="M13.8,40.6c-0.1-0.4-1.8-7.5-1.8-7.5H9.3c0,0-1.7,7.1-1.8,7.5c-0.1-0.7-1.7-7.5-1.7-7.5H3L5.7,43h3.5
		c0.6-2.7,1.5-6.6,1.6-6.9c0,0.4,1.5,6.9,1.5,6.9h3.5l2.7-9.9h-2.9C15.6,33.1,13.9,40.1,13.8,40.6z"/>
	
		<linearGradient id="SVGID_4_" gradientUnits="userSpaceOnUse" x1="2.985" y1="23.95" x2="53.5499" y2="23.95" gradientTransform="matrix(1 0 0 -1 0 62)">
		<stop  offset="0" style="stop-color:#484649"/>
		<stop  offset="1" style="stop-color:#322D31"/>
	</linearGradient>
	<path class="st5" d="M30.5,40.6c-0.1-0.4-1.8-7.5-1.8-7.5H26c0,0-1.7,7.1-1.8,7.5c-0.1-0.7-1.7-7.5-1.7-7.5h-2.9l2.7,9.9h3.5
		c0.6-2.7,1.5-6.6,1.6-6.9c0.1,0.4,1.5,6.9,1.5,6.9h3.5l2.7-9.9h-2.9C32.3,33.1,30.6,40.1,30.5,40.6z"/>
	
		<linearGradient id="SVGID_5_" gradientUnits="userSpaceOnUse" x1="2.985" y1="23.95" x2="53.5499" y2="23.95" gradientTransform="matrix(1 0 0 -1 0 62)">
		<stop  offset="0" style="stop-color:#484649"/>
		<stop  offset="1" style="stop-color:#322D31"/>
	</linearGradient>
	<path class="st6" d="M49.1,33.1c0,0-1.7,7-1.7,7.5c-0.1-0.4-1.8-7.5-1.8-7.5h-2.7c0,0-1.7,7.1-1.8,7.5c-0.1-0.7-1.7-7.5-1.7-7.5
		h-2.9l2.7,9.9h3.5c0.6-2.7,1.5-6.6,1.6-6.9c0,0.4,1.5,6.9,1.5,6.9h3.5l2.7-9.9H49.1z"/>
	
		<linearGradient id="SVGID_6_" gradientUnits="userSpaceOnUse" x1="-1.4319" y1="20.6" x2="54.3627" y2="20.6" gradientTransform="matrix(1 0 0 -1 0 62)">
		<stop  offset="0" style="stop-color:#484649"/>
		<stop  offset="1" style="stop-color:#322D31"/>
	</linearGradient>
	<path class="st7" d="M53.5,39.8c-0.9,0-1.6,0.7-1.6,1.6c0,0.9,0.7,1.6,1.6,1.6c0.9,0,1.6-0.7,1.6-1.6C55,40.5,54.3,39.8,53.5,39.8z
		"/>
</g>
</svg>
