<?xml version="1.0" encoding="utf-8"?>
<!-- Generator: Adobe Illustrator 25.2.0, SVG Export Plug-In . SVG Version: 6.00 Build 0)  -->
<svg version="1.1" id="Calque_1" xmlns="http://www.w3.org/2000/svg" xmlns:xlink="http://www.w3.org/1999/xlink" x="0px" y="0px"
	 viewBox="0 0 60 60" style="enable-background:new 0 0 60 60;" xml:space="preserve">
<style type="text/css">
	.st0{fill:url(#SVGID_1_);}
	.st1{fill:#2F8B57;}
	.st2{fill:#3FC776;}
	.st3{opacity:0.8;fill:#85FF9F;}
	.st4{fill:url(#SVGID_2_);}
</style>
<linearGradient id="SVGID_1_" gradientUnits="userSpaceOnUse" x1="10.6335" y1="22.0065" x2="53.7175" y2="44.5317">
	<stop  offset="0" style="stop-color:#3FC776"/>
	<stop  offset="1" style="stop-color:#2F8B57"/>
</linearGradient>
<path class="st0" d="M52.2,26.6c-3.1,0-5.6-2.6-5.6-5.7c0-0.5,0.1-1,0.2-1.5H16c0.1,0.5,0.2,1,0.2,1.5c0,3.2-2.5,5.7-5.6,5.7
	c-0.5,0-1-0.1-1.5-0.2v13.2c0.5-0.2,1.1-0.3,1.7-0.3c3.1,0,5.6,2.6,5.6,5.7c0,0.5-0.1,0.9-0.2,1.4h30.7c-0.1-0.4-0.2-0.9-0.2-1.4
	c0-3.2,2.5-5.7,5.6-5.7c0.6,0,1.1,0.1,1.6,0.2V26.3C53.4,26.5,52.8,26.6,52.2,26.6z"/>
<rect x="50.5" y="19.4" class="st1" width="3.5" height="3.5"/>
<rect x="50.5" y="42.9" class="st1" width="3.5" height="3.5"/>
<rect x="9.1" y="42.9" class="st2" width="3.5" height="3.5"/>
<ellipse class="st3" cx="31.4" cy="32.9" rx="6.3" ry="6.5"/>
<linearGradient id="SVGID_2_" gradientUnits="userSpaceOnUse" x1="3.2658" y1="22.6514" x2="63.4067" y2="44.4883">
	<stop  offset="0" style="stop-color:#55D07F"/>
	<stop  offset="1" style="stop-color:#2FAE6E"/>
</linearGradient>
<polygon class="st4" points="8.2,12.7 8.2,7 0,14.1 8.2,21.2 8.2,15.5 57.3,15.5 57.3,50.2 5.5,50.2 5.5,24.6 2.7,24.6 2.7,53 
	60,53 60,12.7 "/>
</svg>
