<?xml version="1.0" encoding="utf-8"?>
<!-- Generator: Adobe Illustrator 25.2.0, SVG Export Plug-In . SVG Version: 6.00 Build 0)  -->
<svg version="1.1" id="Calque_1" xmlns="http://www.w3.org/2000/svg" xmlns:xlink="http://www.w3.org/1999/xlink" x="0px" y="0px"
	 viewBox="0 0 60 60" style="enable-background:new 0 0 60 60;" xml:space="preserve">
<style type="text/css">
	.st0{fill:url(#SVGID_1_);}
	.st1{fill:#FFFFFF;}
	.st2{fill:#7A171F;}
	.st3{fill:#DD686E;}
	.st4{fill:url(#SVGID_2_);}
	.st5{fill:url(#SVGID_3_);}
</style>
<linearGradient id="SVGID_1_" gradientUnits="userSpaceOnUse" x1="5.4799" y1="37.2289" x2="47.9401" y2="21.8118">
	<stop  offset="0" style="stop-color:#DD686E"/>
	<stop  offset="1" style="stop-color:#AE3841"/>
</linearGradient>
<path class="st0" d="M44.7,38.3l-9.3-5.9l-1-7.3l10.2-11.7C40,8,33.1,4.5,25.4,4.5C11.4,4.5,0,15.9,0,30c0,14.1,11.4,25.5,25.4,25.5
	c7.7,0,14.6-3.5,19.3-8.9V38.3z"/>
<path class="st1" d="M44.7,32.2h-7.5l5.6-7h-7.4l6.6-8.3c-3.9-4.9-9.8-8.1-16.6-8.1c-11.6,0-21,9.5-21,21.1c0,11.7,9.4,21.1,21,21.1
	c8.6,0,16-5.2,19.3-12.7V32.2z"/>
<path class="st2" d="M31.8,32.9h-6.2c-0.7,0-1.4-0.6-1.4-1.3V21.5c0-0.7,0.6-1.3,1.4-1.3c0.7,0,1.4,0.6,1.4,1.3v8.6h4.9
	c0.7,0,1.4,0.6,1.4,1.3C33.2,32.3,32.6,32.9,31.8,32.9z"/>
<path class="st3" d="M25.6,16.3c-0.7,0-1.4-0.6-1.4-1.3v-4c0-0.7,0.6-1.3,1.4-1.3c0.7,0,1.4,0.6,1.4,1.3v4
	C27,15.7,26.4,16.3,25.6,16.3z"/>
<path class="st3" d="M25.6,50.1c-0.7,0-1.4-0.6-1.4-1.3v-4c0-0.7,0.6-1.3,1.4-1.3c0.7,0,1.4,0.6,1.4,1.3v4
	C27,49.5,26.4,50.1,25.6,50.1z"/>
<path class="st3" d="M10.9,31.3H6.6c-0.7,0-1.4-0.6-1.4-1.3s0.6-1.3,1.4-1.3h4.2c0.7,0,1.4,0.6,1.4,1.3
	C12.2,30.7,11.6,31.3,10.9,31.3z"/>
<linearGradient id="SVGID_2_" gradientUnits="userSpaceOnUse" x1="47.0945" y1="12.4661" x2="54.9533" y2="54.247">
	<stop  offset="0" style="stop-color:#51CC7D"/>
	<stop  offset="1" style="stop-color:#2FAE6E"/>
</linearGradient>
<polygon class="st4" points="49.2,14.7 56.2,23.6 60,23.6 49.2,9.9 38.4,23.6 42.2,23.6 "/>
<linearGradient id="SVGID_3_" gradientUnits="userSpaceOnUse" x1="45.8292" y1="12.7058" x2="53.6918" y2="54.507">
	<stop  offset="0" style="stop-color:#51CC7D"/>
	<stop  offset="1" style="stop-color:#2FAE6E"/>
</linearGradient>
<polygon class="st5" points="46.2,55.4 52.2,55.4 52.2,30.5 58.1,30.5 49.2,19.3 40.3,30.5 46.2,30.5 "/>
</svg>
